{"asset":{"generator":"3D Builder","version":"2.0"},"scene":0,"scenes":[{"nodes":[0]}],"nodes":[{"children":[1,2,3]},{"mesh":0,"matrix":[0.57284998893737793,0,0,0,0,-6.8288919408132642E-8,-0.572848916053772,0,0,0.84208863973617554,-1.2206660926494806E-7,0,-0.00011456119682407007,0.03782089427113533,-0.05313541367650032,1]},{"mesh":1,"matrix":[0.99999994039535522,0,0,0,0,-1.1920928244535389E-7,-0.99999982118606567,0,0,0.99999982118606567,-1.1920928244535389E-7,0,-0.013520854525268078,0.0488000214099884,0.01322364155203104,1]},{"mesh":2,"matrix":[0.99999994039535522,0,0,0,0,-1.1920928244535389E-7,-0.99999982118606567,0,0,0.99999982118606567,-1.1920928244535389E-7,0,-0.013520854525268078,0.082192651927471161,0.013223660178482533,1]}],"meshes":[{"primitives":[{"attributes":{"POSITION":0},"mode":4,"indices":1,"material":0}]},{"primitives":[{"attributes":{"POSITION":2},"mode":4,"indices":3,"material":1}]},{"primitives":[{"attributes":{"POSITION":4},"mode":4,"indices":5,"material":1}]}],"materials":[{"name":"Turquoise","pbrMetallicRoughness":{"baseColorFactor":[0,0.3515326976776123,0.80695247650146484,1],"metallicFactor":0,"roughnessFactor":1}},{"name":"Green","pbrMetallicRoughness":{"baseColorFactor":[0.015208514407277107,0.49693304300308228,0.072271861135959625,1],"metallicFactor":0,"roughnessFactor":1}}],"accessors":[{"bufferView":0,"byteOffset":0,"count":240,"componentType":5126,"type":"VEC3","min":[-0.023243602365255356,-0.11540000885725021,-0.044913202524185181],"max":[0.046582803130149841,-0.045573603361845016,0.024913201108574867]},{"bufferView":1,"byteOffset":0,"count":1428,"componentType":5125,"type":"SCALAR"},{"bufferView":2,"byteOffset":0,"count":2562,"componentType":5126,"type":"VEC3","min":[9.1197005531284958E-5,0.00025229901075363159,-0.010000000707805157],"max":[0.040091205388307571,0.040252301841974258,0.030000001192092896]},{"bufferView":3,"byteOffset":0,"count":15360,"componentType":5125,"type":"SCALAR"},{"bufferView":4,"byteOffset":0,"count":2562,"componentType":5126,"type":"VEC3","min":[9.1197005531284958E-5,0.00025229901075363159,-0.010000000707805157],"max":[0.040091205388307571,0.040252301841974258,0.030000001192092896]},{"bufferView":5,"byteOffset":0,"count":15360,"componentType":5125,"type":"SCALAR"}],"bufferViews":[{"buffer":0,"byteOffset":0,"byteLength":2880,"byteStride":12,"target":34962},{"buffer":0,"byteOffset":2880,"byteLength":5712,"target":34963},{"buffer":0,"byteOffset":8592,"byteLength":30744,"byteStride":12,"target":34962},{"buffer":0,"byteOffset":39336,"byteLength":61440,"target":34963},{"buffer":0,"byteOffset":100776,"byteLength":30744,"byteStride":12,"target":34962},{"buffer":0,"byteOffset":131520,"byteLength":61440,"target":34963}],"buffers":[{"byteLength":192960}]}